<svg version="1.1" xmlns="http://www.w3.org/2000/svg" viewBox="0 0 1119.9434744958435 382.0143476480008" width="1119.9434744958435" height="382.0143476480008">
  <!-- svg-source:excalidraw -->
  
  <defs>
    <style>
      @font-face {
        font-family: "Virgil";
        src: url("https://excalidraw.com/Virgil.woff2");
      }
      @font-face {
        font-family: "Cascadia";
        src: url("https://excalidraw.com/Cascadia.woff2");
      }
    </style>
  </defs>
  <rect x="0" y="0" width="1119.9434744958435" height="382.0143476480008" fill="#ffffff"></rect><g stroke-linecap="round" transform="translate(323.69347449584393 101.01434764800084) rotate(0 67.5 22)"><path d="M-1.94 -0.31 C35.27 1.4, 68.29 0.22, 134.29 1.62 M-0.03 0.44 C48.04 0.28, 95.44 0.48, 134.39 0.2 M135.35 1.08 C136.55 8.69, 135.99 18.04, 135.28 42.49 M134.31 -0.2 C134.13 8.97, 134.15 18.02, 134.68 43.56 M133.51 45.85 C96.01 44.36, 60.76 43.85, -0.69 44.13 M135.68 43.04 C90.7 44.55, 46.92 45.42, -0.25 44.81 M0.65 42.73 C0.62 34.95, 0 22.96, -0.15 0.76 M0.15 43.95 C1.19 29.71, -0.09 15.65, -0.21 0.18" stroke="#000000" stroke-width="4" fill="none"></path></g><g stroke-linecap="round" transform="translate(324.3601411625107 12.014347648000836) rotate(0 67.5 22)"><path d="M0.07 1.01 C25.3 -1.52, 52.81 -0.73, 134.04 1.49 M0.66 -0.36 C49.51 0.33, 99.37 0.67, 134.28 0.78 M134.04 -0.22 C134.09 12.31, 135.88 24.86, 135.14 44.81 M134.2 0.18 C135.47 11.81, 135.74 21.7, 134.17 43.96 M135.07 42.01 C103.36 43.2, 74.14 44.28, 0.3 44.31 M135.49 43.93 C104.43 42.41, 75.36 43.59, 0.06 44.85 M-0.91 43.15 C-0.54 29.31, 0.93 17.9, -0.14 -0.14 M-0.04 44.66 C-0.07 31.54, -0.37 17.78, -0.29 -0.73" stroke="#000000" stroke-width="4" fill="none"></path></g><g stroke-linecap="round" transform="translate(324.69347449584393 193.01434764800084) rotate(0 67.5 22)"><path d="M-0.22 -1.48 C35.78 -0.52, 71.84 -0.54, 134.07 1.3 M-0.53 0.43 C31.45 0.56, 63.16 -0.85, 134.14 -0.51 M134.88 1.2 C134.86 10.41, 133.68 16.61, 135.06 44.2 M135.18 -0.68 C133.95 11.12, 134.04 22.12, 134.3 43.05 M133.74 44.26 C82.43 44.08, 28.74 46.76, -1.15 45.59 M134.3 43.29 C85.95 43.97, 38.98 44.26, 0.8 43.13 M0.49 43.92 C0.88 29.48, -1.1 9.61, -1.94 0.33 M0.67 44.52 C1.16 33.41, 0.04 22.82, -0.58 0.44" stroke="#000000" stroke-width="4" fill="none"></path></g><g stroke-linecap="round" transform="translate(324.69347449584393 282.0143476480008) rotate(0 67.5 22)"><path d="M-1.13 0.85 C32.53 -0.01, 60.37 -1.36, 134.44 -0.38 M0.48 0.13 C39.48 0.02, 80.29 -0.3, 135.64 0.72 M134 1.33 C134.98 16.11, 135.04 29.9, 134.34 42.84 M135.65 0.66 C135.26 16.8, 135.59 35.45, 135.6 44.53 M133.17 44.36 C83.77 41.99, 32.6 45.05, -1.86 42.18 M135.05 43.73 C103.29 45.63, 73.06 45.95, 0 44.48 M1.01 45.06 C-0.01 30.03, -1.53 16.68, 0.57 1.51 M-0.68 44.11 C-0.64 30.54, -0.62 16.86, -0.75 0.16" stroke="#000000" stroke-width="4" fill="none"></path></g><g stroke-linecap="round" transform="translate(323.69347449584393 147.01434764800084) rotate(0 67.5 22)"><path d="M-0.98 1.35 C29.64 -1.71, 62.13 -0.15, 134.2 1.61 M-0.07 -0.75 C45.38 1.13, 91.44 0, 135.04 0.23 M134.2 1.77 C133.33 12.87, 133.65 25.87, 134.16 45.11 M135.7 0.25 C134.32 13.63, 135.06 27.36, 135.29 44.48 M134.84 42.79 C89.74 45.65, 42.88 43.3, 0.22 43.61 M134.45 43.38 C93.8 43.95, 53.18 44.74, 0.28 43.12 M0.76 44.9 C0.44 32.97, -1.12 24.03, 0.56 0.13 M-0.34 43.32 C-0.6 29, 1.06 15.31, 0.12 0.75" stroke="#000000" stroke-width="4" fill="none"></path></g><g stroke-linecap="round" transform="translate(324.3601411625107 58.014347648000836) rotate(0 67.5 22)"><path d="M1.01 -1.81 C38.84 -1.47, 79.93 -1.01, 136.49 1.35 M-0.36 -0.13 C35.46 -0.82, 71.1 -1.62, 135.78 -0.11 M134.78 -0.68 C134.16 11.97, 133.98 21.85, 135.81 42.91 M135.18 0.56 C136.25 13.16, 135.34 23.85, 134.96 43.3 M133.01 43.47 C80.81 45.4, 29.47 44.34, 0.31 42.46 M134.93 43.55 C102.89 45.27, 72.25 44.72, 0.85 43.9 M-0.85 43.07 C-1.94 35.22, -0.58 25.21, -0.14 -0.21 M0.66 44.05 C0.28 29.33, -0.76 14.86, -0.73 0.26" stroke="#000000" stroke-width="4" fill="none"></path></g><g stroke-linecap="round" transform="translate(324.69347449584393 239.01434764800084) rotate(0 67.5 22)"><path d="M-1.48 -0.99 C47.58 -1.57, 96.29 -0.79, 136.3 -1.36 M0.43 0.15 C37.12 1.29, 72.36 -0.14, 134.49 -0.91 M136.2 -0.26 C136 13.03, 133.02 29.02, 135.2 43.07 M134.32 -0.64 C134.78 8.56, 134.62 17.54, 134.05 44.94 M135.26 44.56 C84.42 43.16, 37.32 42, 1.59 45.16 M134.29 43.27 C98.82 43.69, 62.34 43.86, -0.87 44.72 M-0.08 45.19 C1.86 26.95, -1.64 9.56, 0.33 -1.14 M0.52 44.99 C0.54 32.35, 0.65 20.37, 0.44 -0.39" stroke="#000000" stroke-width="4" fill="none"></path></g><g stroke-linecap="round" transform="translate(324.69347449584393 328.0143476480008) rotate(0 67.5 22)"><path d="M0.85 1.35 C51.4 -1.22, 101.27 0.2, 134.62 -0.04 M0.13 -0.73 C50.12 -0.78, 99.9 -0.01, 135.72 0.31 M136.33 0.28 C136.94 10.57, 136.16 19.79, 133.84 45.99 M135.66 0.5 C134.19 11.68, 135.27 22.32, 135.53 44.84 M135.36 44.59 C99.62 44.01, 68.6 40.91, -1.82 42.6 M134.73 43.35 C101.09 44.24, 66.87 44.07, 0.48 43.98 M1.06 44.18 C-0.76 27.59, -1 14.42, 1.51 0.06 M0.11 43.78 C-0.04 26.4, -0.39 8.46, 0.16 -0.7" stroke="#000000" stroke-width="4" fill="none"></path></g><g transform="translate(328.69347449584393 110.51434764800084) rotate(0 62.5 12.5)"><text x="62.5" y="18" font-family="Virgil, Segoe UI Emoji" font-size="20px" fill="#000000" text-anchor="middle" style="white-space: pre;" direction="ltr">num_blocks</text></g><g transform="translate(329.3601411625107 21.514347648000836) rotate(0 62.5 12.5)"><text x="62.5" y="18" font-family="Virgil, Segoe UI Emoji" font-size="20px" fill="#000000" text-anchor="middle" style="white-space: pre;" direction="ltr">block_idx</text></g><g transform="translate(329.69347449584393 291.5143476480008) rotate(0 62.5 12.5)"><text x="62.5" y="18" font-family="Virgil, Segoe UI Emoji" font-size="20px" fill="#000000" text-anchor="middle" style="white-space: pre;" direction="ltr">...</text></g><g transform="translate(328.69347449584393 156.51434764800084) rotate(0 62.5 12.5)"><text x="62.5" y="18" font-family="Virgil, Segoe UI Emoji" font-size="20px" fill="#000000" text-anchor="middle" style="white-space: pre;" direction="ltr">block_cap</text></g><g transform="translate(329.3601411625107 67.51434764800084) rotate(0 62.5 12.5)"><text x="62.5" y="18" font-family="Virgil, Segoe UI Emoji" font-size="20px" fill="#000000" text-anchor="middle" style="white-space: pre;" direction="ltr">cell_idx</text></g><g stroke-linecap="round" transform="translate(586.4434744958439 192.01434764800084) rotate(0 43.5 22)"><path d="M0.25 0.01 C32.72 -1.54, 67.12 -2.36, 87.15 -1.19 M0.71 -0.02 C18.59 0.18, 38.55 1.09, 86.62 0.01 M86.16 1.61 C85.98 9.95, 88.68 24.04, 88.12 45.41 M86.87 -0.61 C86.65 15.92, 85.92 29.51, 86.87 43.84 M87.6 45.79 C62.79 45.32, 39.85 42.61, 1.55 45.22 M86.04 44.77 C60.97 44.24, 35.11 43.24, 0.48 43.04 M1.45 44.53 C0.72 31.02, 1.68 19.79, 1.68 -0.29 M-0.1 44.28 C-0.25 28.64, 0.44 11.12, -0.71 0.2" stroke="#000000" stroke-width="4" fill="none"></path></g><g stroke-linecap="round" transform="translate(587.276807829177 238.51434764800084) rotate(0 43.5 22)"><path d="M-0.14 -1.73 C21.34 0.18, 44.9 1.24, 86.47 -0.93 M0.4 0.17 C18.34 -0.26, 37.25 1.37, 87.22 0.53 M85.92 1.46 C88.23 9.87, 87.3 16.7, 86.95 45.24 M87.45 -0.4 C87.03 12.9, 86.43 24.16, 87.9 43.31 M87.83 43.51 C60.11 44.12, 30.02 44.56, -0.81 44.4 M87.6 43.39 C56.24 43.08, 24.17 43.18, 0 43.09 M1.9 42.34 C-0.07 32.2, 0.16 24.3, -1.26 -1.67 M-0.06 44.57 C0.94 34.06, -0.39 24.07, -0.84 0.79" stroke="#000000" stroke-width="4" fill="none"></path></g><g stroke-linecap="round" transform="translate(588.9434744958435 324.3476809813343) rotate(0 43.5 22)"><path d="M2 -0.12 C26.47 0.18, 51.29 -0.15, 86.78 1.96 M0.05 0.43 C27.96 -0.77, 57.36 -1.46, 87.02 0.83 M86.98 0.23 C85.2 16.18, 86.66 30.97, 88.37 43.05 M87.05 0.4 C86.03 11.19, 86.28 19.74, 86.77 43.16 M85.79 44.74 C58.66 43.62, 28.65 45.81, -0.1 42.83 M87.52 43.06 C67.77 44.1, 46.08 45.11, 0.64 43.18 M-0.12 45.82 C-0.27 30.5, -1.71 17.41, -1.64 1.31 M0.9 44.28 C-0.26 32.14, -0.8 19.66, 0.48 0.78" stroke="#000000" stroke-width="4" fill="none"></path></g><g stroke-linecap="round" transform="translate(673.6101411625107 191.84768098133415) rotate(0 43.5 22)"><path d="M1.37 1.69 C19.78 -1.1, 39.43 0.89, 86.1 -1.21 M-0.1 -0.18 C19.05 0.01, 37.73 -1.33, 86.45 0.54 M87.45 0.1 C85.95 8.7, 87.45 21.8, 86.28 45.27 M86.7 0.69 C86.14 9.56, 86.63 19.23, 87.18 44.09 M86.18 43.32 C59.37 44.65, 28.36 44.24, -1.49 43.18 M87.34 43.8 C56.29 45.09, 23.57 44.38, 0.31 44.29 M1.36 45.79 C-1.14 35.49, 0.81 22.52, 1.84 -1.19 M-0.86 43.97 C-1.31 34, -0.44 24.87, -0.28 -0.19" stroke="#000000" stroke-width="4" fill="none"></path></g><g stroke-linecap="round" transform="translate(674.4434744958437 238.34768098133415) rotate(0 43.5 22)"><path d="M-1.73 -0.11 C23.07 2.05, 47.66 -0.47, 86.07 -1.8 M0.17 0.05 C17.08 0.32, 36.74 -0.13, 87.53 -0.94 M88.46 1.39 C87.4 12.09, 85.17 23.24, 88.24 43.54 M86.6 -0.32 C87.81 15.74, 86.88 34.21, 86.31 44.16 M86.51 44.61 C52.9 42.39, 18.93 43.55, 0.4 45.28 M86.39 44.89 C52.42 44.99, 18.13 44.53, -0.91 43.33 M-1.66 43.7 C-1.79 32.99, 0.56 20.83, -1.67 -1.44 M0.57 44.89 C-0.34 30.89, -0.31 17.84, 0.79 0.46" stroke="#000000" stroke-width="4" fill="none"></path></g><g stroke-linecap="round" transform="translate(676.1101411625102 324.18101431466755) rotate(0 43.5 22)"><path d="M-0.12 1.66 C16.97 0.8, 34.14 -1.09, 88.96 0.53 M0.43 -0.46 C18.4 0.47, 36.42 -0.02, 87.83 0.39 M87.23 -1.92 C88.41 13.95, 88.3 30.19, 86.05 42.65 M87.4 -0.57 C87.58 8.89, 85.89 18.2, 86.16 44.34 M87.74 44.69 C53.14 43.18, 22.52 43.37, -1.17 42.61 M86.06 44.82 C59.43 43.64, 32.87 45.1, -0.82 44.23 M1.82 43.54 C0.65 30.81, 1.77 19.8, 1.31 -0.29 M0.28 43.92 C0.74 28.42, 0.83 14.56, 0.78 0.82" stroke="#000000" stroke-width="4" fill="none"></path></g><g stroke-linecap="round" transform="translate(761.776807829177 237.34768098133415) rotate(0 43.5 22)"><path d="M-0.11 -0.47 C21.53 1.34, 38.55 -0.18, 85.2 -1.85 M0.05 -0.95 C19.84 0.52, 38.55 0.38, 86.06 -0.35 M88.39 0.82 C87.21 7.61, 86.71 19.29, 86.54 45.57 M86.68 0.71 C86.28 13.96, 88.1 27.65, 87.16 44.95 M87.61 44.3 C60.72 44.52, 37.58 44.18, 1.28 45.91 M87.89 43.83 C68.84 43.4, 49.75 42.56, -0.67 43.49 M-0.3 42.45 C-0.48 29.18, -1.68 11.09, -1.44 -0.25 M0.89 44.08 C-0.42 26.71, -0.81 9.99, 0.46 0.71" stroke="#000000" stroke-width="4" fill="none"></path></g><g stroke-linecap="round" transform="translate(763.4434744958435 323.18101431466755) rotate(0 43.5 22)"><path d="M1.66 -0.53 C20.65 -0.81, 37.73 2.01, 87.53 -1.7 M-0.46 -0.3 C31.3 -1.36, 61.6 0.46, 87.39 0.28 M85.08 1.27 C86.53 15.82, 88.36 28.39, 85.65 42.19 M86.43 0.95 C86.7 8.73, 86.8 18.09, 87.34 44.77 M87.69 42.96 C53.93 45.47, 21.34 43.15, -1.39 44.34 M87.82 43.99 C58.93 44.18, 33.13 42.36, 0.23 43.56 M-0.46 44.72 C-1.88 31.93, -1.61 17.49, -0.29 0.8 M-0.08 44.71 C-1.02 31.91, 0.08 19.01, 0.82 0.44" stroke="#000000" stroke-width="4" fill="none"></path></g><g stroke-linecap="round" transform="translate(937.11014116251 322.8476809813343) rotate(0 43.5 22)"><path d="M-1.52 0.98 C30.68 0.83, 61.21 -0.46, 86.11 -1.31 M0.97 0.03 C18.98 1.25, 37.01 0.21, 86.54 0.22 M85.02 -0.66 C88.94 10.7, 85.98 20.33, 85.62 42.23 M86.17 0.26 C86.49 15.02, 86.53 30.17, 86.2 44.58 M88.73 45.71 C62.43 45.12, 38.65 43.49, -0.03 42.05 M87.82 43.36 C67.92 44.01, 49.11 42.66, 0.74 44.53 M-1.48 43.3 C-1.84 27.64, 0.65 13.34, 1.34 -1.15 M0.16 44.47 C0.2 25.98, -0.33 9.58, -0.7 -0.33" stroke="#000000" stroke-width="4" fill="none"></path></g><g stroke-linecap="round" transform="translate(847.6101411625104 236.51434764800084) rotate(0 43.5 22)"><path d="M-0.47 1.99 C26.07 -0.49, 50.04 -1.75, 85.15 -1.59 M-0.95 0.67 C30.29 0.18, 59.77 -0.98, 86.65 -0.95 M87.82 0.45 C85.91 10.78, 88.57 21.19, 88.57 44.44 M87.71 -0.92 C86.61 16.07, 86.13 30.51, 87.95 43.79 M87.3 42.03 C58.01 43.46, 27.94 45.54, 1.91 42.28 M86.83 44.47 C55.58 44.78, 23.39 44.11, -0.51 44.55 M-1.55 43.94 C1.17 25.35, -1.31 7.78, -0.25 1.91 M0.08 43.55 C-0.14 30.24, 0.54 18.62, 0.71 0.86" stroke="#000000" stroke-width="4" fill="none"></path></g><g stroke-linecap="round" transform="translate(849.276807829177 322.3476809813343) rotate(0 43.5 22)"><path d="M-0.53 1.67 C33.93 -0.95, 71.54 -0.19, 85.3 1.08 M-0.3 0.52 C25.53 0.43, 53.87 0.79, 87.28 0.33 M88.27 -0.47 C88.2 14.52, 86.1 24.97, 85.19 42.3 M87.95 -0.32 C86.43 13.18, 86.33 27.15, 87.77 44.77 M85.96 43.71 C67.33 44.2, 44.2 42.91, 0.34 44.27 M86.99 43.19 C57.34 45.36, 24.88 44.95, -0.44 44.16 M0.72 42.09 C1.44 29.43, 0.91 17.85, 0.8 -0.14 M0.71 43.38 C0.67 27.33, 0.66 10.52, 0.44 -0.47" stroke="#000000" stroke-width="4" fill="none"></path></g><g stroke-linecap="round" transform="translate(1022.9434744958435 322.01434764800103) rotate(0 43.5 22)"><path d="M0.98 0.04 C25.82 0.6, 49.51 -0.23, 85.69 -1.67 M0.03 0.14 C35.45 -1.52, 69.17 -1.3, 87.22 -0.7 M86.34 1.94 C87.97 12.18, 87.47 25.02, 85.23 45 M87.26 -0.46 C86.49 12.27, 86.25 24.58, 87.58 43.86 M88.71 44.32 C63.07 46.17, 36.31 44.72, -1.95 42.41 M86.36 44.11 C68.07 45.2, 47.39 45.46, 0.53 44.36 M-0.7 42.2 C-1.49 31.12, -1.03 18.21, -1.15 1.81 M0.47 44.04 C-0.94 31.92, -0.16 20.12, -0.33 0.92" stroke="#000000" stroke-width="4" fill="none"></path></g><g stroke-linecap="round" transform="translate(380.5 207.93004082428902) rotate(0 8 8)"><path d="M4.19 0.52 C5.59 -0.33, 7.64 -0.96, 9.27 -0.45 C10.91 0.07, 12.98 2.14, 13.99 3.61 C15.01 5.08, 15.25 6.85, 15.34 8.38 C15.43 9.91, 15.71 11.63, 14.51 12.79 C13.31 13.95, 10.11 15.09, 8.12 15.34 C6.12 15.59, 3.94 15.31, 2.54 14.31 C1.14 13.31, -0.01 11.01, -0.29 9.36 C-0.57 7.7, -0.31 5.77, 0.86 4.36 C2.03 2.96, 5.36 1.75, 6.72 0.92 C8.07 0.09, 8.91 -0.57, 8.99 -0.63 M9.61 0.29 C11.28 0.4, 13.91 1.71, 15.2 2.89 C16.5 4.08, 17.74 5.55, 17.37 7.38 C17 9.22, 14.54 12.61, 12.97 13.9 C11.41 15.19, 9.51 15.15, 7.96 15.12 C6.42 15.09, 4.93 14.2, 3.69 13.72 C2.46 13.25, 0.92 13.67, 0.55 12.27 C0.18 10.87, 0.92 7.23, 1.47 5.34 C2.03 3.45, 2.4 1.89, 3.86 0.92 C5.32 -0.04, 9.56 -0.48, 10.25 -0.46 C10.95 -0.44, 8.01 1.06, 8.01 1.07" stroke="none" stroke-width="0" fill="#000000"></path><path d="M4.93 0.51 C6.37 -0.05, 8.51 0.35, 10.21 0.81 C11.9 1.28, 14.15 2.01, 15.11 3.3 C16.06 4.59, 16.33 6.94, 15.94 8.55 C15.54 10.16, 13.99 11.88, 12.75 12.97 C11.51 14.05, 10.07 14.95, 8.52 15.07 C6.96 15.19, 4.73 14.62, 3.41 13.71 C2.09 12.8, 1.18 11.2, 0.62 9.61 C0.06 8.03, -0.73 5.9, 0.04 4.21 C0.81 2.51, 4.08 -0.03, 5.23 -0.57 C6.37 -1.11, 6.96 0.62, 6.91 0.97 M6.37 0.02 C8.15 -0.37, 11.49 1.43, 13.08 2.2 C14.67 2.97, 15.39 3.12, 15.9 4.64 C16.41 6.17, 16.65 9.71, 16.12 11.36 C15.59 13, 14.22 13.92, 12.74 14.53 C11.25 15.14, 9.11 15.34, 7.22 15.02 C5.33 14.7, 2.44 13.85, 1.41 12.6 C0.39 11.35, 1.06 8.91, 1.08 7.52 C1.1 6.13, 0.56 5.56, 1.52 4.24 C2.47 2.93, 6.14 0.26, 6.81 -0.36 C7.48 -0.98, 5.59 0.05, 5.53 0.52" stroke="#000000" stroke-width="1" fill="none"></path></g><g stroke-linecap="round" transform="translate(380.5 253.26337415762234) rotate(0 8 8)"><path d="M11.5 -0.08 C13.25 0.16, 14.65 1.73, 15.32 3.2 C15.99 4.66, 15.99 6.9, 15.52 8.69 C15.06 10.48, 13.96 12.68, 12.54 13.93 C11.12 15.17, 8.72 16.11, 7.02 16.18 C5.33 16.25, 3.43 15.33, 2.4 14.35 C1.36 13.36, 1.02 12.14, 0.82 10.27 C0.63 8.4, 0.39 4.62, 1.23 3.12 C2.07 1.63, 3.76 1.59, 5.84 1.29 C7.93 0.98, 12.12 0.96, 13.73 1.28 C15.34 1.61, 15.75 2.95, 15.49 3.24 M12.73 0.88 C14.65 1.54, 16.12 2.78, 16.73 4.33 C17.33 5.88, 17.07 8.61, 16.35 10.18 C15.64 11.75, 14.22 12.56, 12.43 13.74 C10.64 14.92, 7.19 17.12, 5.63 17.25 C4.07 17.38, 3.93 16.08, 3.08 14.52 C2.22 12.96, 0.93 9.74, 0.49 7.88 C0.04 6.02, -0.69 4.8, 0.4 3.35 C1.49 1.9, 4.95 -0.49, 7.05 -0.8 C9.14 -1.11, 12.05 1.31, 12.99 1.49 C13.92 1.67, 13.07 0.03, 12.64 0.27" stroke="none" stroke-width="0" fill="#000000"></path><path d="M7.32 -0.95 C9.16 -1.04, 11.87 0.36, 13.41 1.46 C14.95 2.55, 16.42 4, 16.55 5.64 C16.67 7.28, 15.19 9.79, 14.16 11.28 C13.14 12.76, 11.91 13.72, 10.41 14.55 C8.9 15.38, 6.51 16.78, 5.14 16.26 C3.78 15.74, 3.18 13.09, 2.2 11.44 C1.22 9.8, -0.72 7.84, -0.74 6.38 C-0.75 4.92, 0.68 3.9, 2.1 2.68 C3.52 1.45, 6.81 -0.45, 7.78 -0.97 C8.75 -1.5, 8 -0.62, 7.92 -0.46 M6.73 -1 C8.18 -1.51, 9.55 -0.22, 11.15 0.82 C12.75 1.86, 15.77 3.77, 16.33 5.24 C16.88 6.71, 15.21 8.01, 14.46 9.63 C13.72 11.25, 13.23 13.79, 11.84 14.95 C10.46 16.12, 7.78 16.92, 6.13 16.6 C4.48 16.28, 3.13 14.51, 1.92 13.02 C0.71 11.52, -0.97 9.14, -1.12 7.61 C-1.27 6.08, -0.1 5.15, 1.02 3.84 C2.13 2.53, 4.84 0.42, 5.57 -0.25 C6.3 -0.92, 5.26 -0.31, 5.38 -0.19" stroke="#000000" stroke-width="1" fill="none"></path></g><g stroke-linecap="round" transform="translate(381.33333333333337 339.09670749095574) rotate(0 8 8)"><path d="M7.72 0.57 C9.13 0.36, 11.09 0.66, 12.28 1.48 C13.46 2.3, 14.34 3.74, 14.83 5.49 C15.32 7.23, 15.89 10.34, 15.21 11.93 C14.52 13.53, 12.44 14.33, 10.73 15.04 C9.02 15.76, 6.46 16.72, 4.94 16.22 C3.41 15.71, 2.35 13.49, 1.6 12 C0.84 10.51, 0.19 9, 0.39 7.27 C0.59 5.54, 1.7 2.95, 2.81 1.63 C3.93 0.32, 6.31 -0.37, 7.08 -0.61 C7.84 -0.84, 7.2 -0.13, 7.39 0.22 M7.29 -0.31 C8.91 -1.03, 11.5 0.29, 12.76 0.87 C14.02 1.44, 14.57 1.53, 14.85 3.13 C15.13 4.73, 14.62 8.63, 14.47 10.47 C14.33 12.3, 15.23 13.19, 13.98 14.16 C12.74 15.13, 8.76 16.31, 6.98 16.29 C5.2 16.27, 4.54 15.54, 3.31 14.04 C2.08 12.54, 0.01 9.22, -0.39 7.31 C-0.8 5.4, -0.3 3.61, 0.88 2.58 C2.06 1.54, 6.05 1.23, 6.69 1.1 C7.33 0.98, 4.78 2.05, 4.72 1.84" stroke="none" stroke-width="0" fill="#000000"></path><path d="M9.83 -0.51 C11.31 -0.19, 13.09 1.88, 13.96 3.54 C14.83 5.2, 15.23 7.84, 15.06 9.47 C14.88 11.1, 14.02 12.06, 12.89 13.3 C11.76 14.55, 9.85 16.76, 8.28 16.93 C6.7 17.11, 4.84 15.63, 3.44 14.37 C2.03 13.11, 0.43 11.05, -0.15 9.37 C-0.74 7.7, -0.97 5.83, -0.08 4.34 C0.81 2.85, 3.43 1.17, 5.17 0.43 C6.92 -0.32, 9.1 -0.12, 10.39 -0.11 C11.69 -0.1, 12.81 0.33, 12.97 0.47 M9.54 -0.58 C11.05 -0.63, 13.06 0.71, 14.22 2.17 C15.38 3.63, 16.48 6.5, 16.47 8.2 C16.46 9.91, 15.16 11.3, 14.17 12.39 C13.18 13.48, 12.31 14.49, 10.54 14.72 C8.77 14.96, 5.04 14.29, 3.56 13.81 C2.07 13.34, 2.2 13.01, 1.62 11.87 C1.04 10.73, -0.15 8.53, 0.09 6.96 C0.33 5.39, 1.42 3.41, 3.08 2.43 C4.75 1.46, 9.38 1.43, 10.07 1.09 C10.76 0.74, 7.44 0.46, 7.24 0.35" stroke="#000000" stroke-width="1" fill="none"></path></g><g stroke-linecap="round" transform="translate(223 158.76337415762234) rotate(0 8 8)"><path d="M5.33 0.57 C6.85 -0.33, 9.24 -0.83, 10.93 -0.21 C12.61 0.41, 14.52 2.79, 15.43 4.28 C16.34 5.78, 16.72 7.05, 16.39 8.75 C16.05 10.44, 14.89 13.36, 13.41 14.44 C11.93 15.51, 9.14 15.38, 7.48 15.21 C5.83 15.04, 4.7 14.43, 3.48 13.44 C2.26 12.45, 0.72 10.99, 0.17 9.27 C-0.37 7.55, -0.76 4.47, 0.21 3.11 C1.19 1.74, 4.78 1.57, 6.02 1.08 C7.27 0.58, 7.69 0.1, 7.68 0.13 M11.72 -0.67 C13.23 -0.25, 14.62 1.43, 15.56 3.23 C16.5 5.04, 17.93 8.45, 17.35 10.16 C16.77 11.86, 13.87 12.45, 12.09 13.48 C10.32 14.5, 8.27 16.35, 6.71 16.3 C5.14 16.26, 3.92 14.21, 2.7 13.2 C1.48 12.2, -0.18 12.07, -0.63 10.28 C-1.09 8.49, -1.21 3.99, -0.02 2.46 C1.17 0.93, 4.48 1.25, 6.51 1.1 C8.54 0.94, 11.34 1.45, 12.16 1.53 C12.97 1.61, 11.89 1.82, 11.39 1.58" stroke="none" stroke-width="0" fill="#000000"></path><path d="M12.21 0.54 C13.65 1.24, 14.74 3.62, 15.3 5.39 C15.86 7.16, 16.07 9.5, 15.58 11.18 C15.09 12.86, 13.68 14.8, 12.36 15.48 C11.05 16.17, 9.29 15.73, 7.68 15.28 C6.07 14.83, 4.03 13.9, 2.69 12.78 C1.36 11.67, -0.22 10.06, -0.35 8.62 C-0.48 7.18, 0.75 5.7, 1.93 4.14 C3.1 2.58, 4.8 -0.16, 6.7 -0.74 C8.6 -1.32, 12.34 0.09, 13.32 0.66 C14.31 1.24, 12.93 2.36, 12.62 2.71 M8.92 0.12 C10.57 0.1, 12.35 0.96, 13.53 2.18 C14.72 3.41, 15.64 5.5, 16 7.47 C16.36 9.44, 16.5 12.75, 15.69 13.98 C14.88 15.2, 13.09 14.47, 11.15 14.81 C9.21 15.15, 5.99 16.5, 4.04 16.01 C2.09 15.52, 0.12 13.79, -0.55 11.87 C-1.22 9.94, -0.65 6.19, 0 4.45 C0.65 2.7, 1.78 1.9, 3.37 1.39 C4.97 0.88, 8.61 1.37, 9.57 1.39 C10.52 1.42, 9.23 1.61, 9.11 1.54" stroke="#000000" stroke-width="1" fill="none"></path></g><g stroke-linecap="round"><g transform="translate(392.6798076458741 215.38491481287085) rotate(0 95.17933321601606 -1.1949392404045227)"><path d="M-0.24 0.33 C31.3 -0.2, 158.14 -2.43, 189.84 -2.72 M-1.82 -0.55 C30.05 -0.95, 160.39 -0.97, 192.18 -1.43" stroke="#000000" stroke-width="1" fill="none"></path></g><g transform="translate(392.6798076458741 215.38491481287085) rotate(0 95.17933321601606 -1.1949392404045227)"><path d="M164.6 7.82 C173.18 4.44, 185.36 0.77, 191.88 0.21 M164.19 8.93 C174.27 6.73, 182.97 1.5, 191.56 -1.71" stroke="#000000" stroke-width="1" fill="none"></path></g><g transform="translate(392.6798076458741 215.38491481287085) rotate(0 95.17933321601606 -1.1949392404045227)"><path d="M164.47 -12.7 C173.18 -8.82, 185.4 -5.23, 191.88 0.21 M164.06 -11.59 C174.11 -7.09, 182.85 -5.62, 191.56 -1.71" stroke="#000000" stroke-width="1" fill="none"></path></g></g><g stroke-linecap="round"><g transform="translate(392.6798076458741 260.718248146204) rotate(0 95.41632555939833 -2.01439863115894)"><path d="M-1.06 -0.11 C30.39 -0.88, 157.77 -3.23, 189.64 -3.92 M0.59 -1.22 C32.32 -1.92, 160.45 -2.45, 191.89 -2.83" stroke="#000000" stroke-width="1" fill="none"></path></g><g transform="translate(392.6798076458741 260.718248146204) rotate(0 95.41632555939833 -2.01439863115894)"><path d="M163.59 6.17 C172.96 3.32, 183.16 1.06, 191.53 -1.34 M163.1 6.82 C170.15 5.86, 178.31 1.85, 191.09 -3.44" stroke="#000000" stroke-width="1" fill="none"></path></g><g transform="translate(392.6798076458741 260.718248146204) rotate(0 95.41632555939833 -2.01439863115894)"><path d="M163.43 -14.35 C172.98 -9.4, 183.24 -3.87, 191.53 -1.34 M162.94 -13.7 C169.84 -9.73, 178.03 -8.82, 191.09 -3.44" stroke="#000000" stroke-width="1" fill="none"></path></g></g><g stroke-linecap="round"><g transform="translate(393.5131409792075 346.5515814795374) rotate(0 94.73837380061394 -0.936321015960516)"><path d="M-0.07 0.56 C31.96 0.05, 159.25 -1.77, 191.04 -2.44 M-1.56 -0.18 C30.44 -0.53, 158.37 -0.44, 190.27 -0.84" stroke="#000000" stroke-width="1" fill="none"></path></g><g transform="translate(393.5131409792075 346.5515814795374) rotate(0 94.73837380061394 -0.936321015960516)"><path d="M163.07 10.14 C168.02 7.38, 172.14 4.38, 190.87 -2.7 M161.5 10.55 C173.29 5.17, 184.17 0.43, 189.53 -1.31" stroke="#000000" stroke-width="1" fill="none"></path></g><g transform="translate(393.5131409792075 346.5515814795374) rotate(0 94.73837380061394 -0.936321015960516)"><path d="M162.97 -10.39 C168.04 -8.95, 172.18 -7.75, 190.87 -2.7 M161.39 -9.97 C173.04 -7.17, 183.96 -3.74, 189.53 -1.31" stroke="#000000" stroke-width="1" fill="none"></path></g></g><g transform="translate(591.4434744958439 201.51434764800084) rotate(0 38.5 12.5)"><text x="38.5" y="18" font-family="Virgil, Segoe UI Emoji" font-size="20px" fill="#000000" text-anchor="middle" style="white-space: pre;" direction="ltr">[0,0]</text></g><g transform="translate(592.276807829177 248.01434764800084) rotate(0 38.5 12.5)"><text x="38.5" y="18" font-family="Virgil, Segoe UI Emoji" font-size="20px" fill="#000000" text-anchor="middle" style="white-space: pre;" direction="ltr">[1,0]</text></g><g transform="translate(593.9434744958435 333.8476809813343) rotate(0 38.5 12.5)"><text x="38.5" y="18" font-family="Virgil, Segoe UI Emoji" font-size="20px" fill="#000000" text-anchor="middle" style="white-space: pre;" direction="ltr">[n,0]</text></g><g transform="translate(678.6101411625107 201.34768098133415) rotate(0 38.5 12.5)"><text x="38.5" y="18" font-family="Virgil, Segoe UI Emoji" font-size="20px" fill="#000000" text-anchor="middle" style="white-space: pre;" direction="ltr">[0,1]</text></g><g transform="translate(679.4434744958437 247.84768098133415) rotate(0 38.5 12.5)"><text x="38.5" y="18" font-family="Virgil, Segoe UI Emoji" font-size="20px" fill="#000000" text-anchor="middle" style="white-space: pre;" direction="ltr">[1,1]</text></g><g transform="translate(681.1101411625102 333.68101431466755) rotate(0 38.5 12.5)"><text x="38.5" y="18" font-family="Virgil, Segoe UI Emoji" font-size="20px" fill="#000000" text-anchor="middle" style="white-space: pre;" direction="ltr">[n,1]</text></g><g transform="translate(766.776807829177 246.84768098133415) rotate(0 38.5 12.5)"><text x="38.5" y="18" font-family="Virgil, Segoe UI Emoji" font-size="20px" fill="#000000" text-anchor="middle" style="white-space: pre;" direction="ltr">[1,2]</text></g><g transform="translate(768.4434744958435 332.68101431466755) rotate(0 38.5 12.5)"><text x="38.5" y="18" font-family="Virgil, Segoe UI Emoji" font-size="20px" fill="#000000" text-anchor="middle" style="white-space: pre;" direction="ltr">[n,2]</text></g><g transform="translate(942.11014116251 332.3476809813343) rotate(0 38.5 12.5)"><text x="38.5" y="18" font-family="Virgil, Segoe UI Emoji" font-size="20px" fill="#000000" text-anchor="middle" style="white-space: pre;" direction="ltr">[n,...]</text></g><g transform="translate(852.6101411625104 246.01434764800084) rotate(0 38.5 12.5)"><text x="38.5" y="18" font-family="Virgil, Segoe UI Emoji" font-size="20px" fill="#000000" text-anchor="middle" style="white-space: pre;" direction="ltr">[1,3]</text></g><g transform="translate(854.276807829177 331.8476809813343) rotate(0 38.5 12.5)"><text x="38.5" y="18" font-family="Virgil, Segoe UI Emoji" font-size="20px" fill="#000000" text-anchor="middle" style="white-space: pre;" direction="ltr">[n,3]</text></g><g transform="translate(1027.9434744958435 331.51434764800103) rotate(0 38.5 12.5)"><text x="38.5" y="18" font-family="Virgil, Segoe UI Emoji" font-size="20px" fill="#000000" text-anchor="middle" style="white-space: pre;" direction="ltr">[n,m]</text></g><g transform="translate(10 154.5967074909557) rotate(0 101.5 12.5)"><text x="0" y="18" font-family="Virgil, Segoe UI Emoji" font-size="20px" fill="#000000" text-anchor="start" style="white-space: pre;" direction="ltr">pool_allocator_t(T)</text></g><g stroke-linecap="round"><g transform="translate(231.66666666666674 166.09670749095577) rotate(0 45.95913094883002 24.34365699219515)"><path d="M0.34 0.72 C2.77 8.08, -0.98 35.34, 14.44 43.03 C29.86 50.72, 79.59 46.16, 92.86 46.87 M-0.94 0.06 C1.3 7.62, -2.26 36, 13.2 43.97 C28.67 51.93, 78.26 47.13, 91.85 47.85" stroke="#000000" stroke-width="1" fill="none"></path></g><g transform="translate(231.66666666666674 166.09670749095577) rotate(0 45.95913094883002 24.34365699219515)"><path d="M65.05 57.67 C70.09 54.65, 78.97 53.61, 91.5 47.38 M63.32 57.85 C71.95 55.78, 81.23 52.2, 92.58 47.36" stroke="#000000" stroke-width="1" fill="none"></path></g><g transform="translate(231.66666666666674 166.09670749095577) rotate(0 45.95913094883002 24.34365699219515)"><path d="M64.69 37.16 C69.64 40.02, 78.63 44.87, 91.5 47.38 M62.96 37.33 C71.73 41.63, 81.12 44.41, 92.58 47.36" stroke="#000000" stroke-width="1" fill="none"></path></g></g><g stroke-linecap="round"><g transform="translate(469.1666769981383 10.680039234831924) rotate(0 20.438529213145387 88.83560717913012)"><path d="M-1 -0.68 C3.87 0.78, 26.89 -3.02, 30.19 9.45 C33.5 21.93, 16.9 61.37, 18.85 74.18 C20.79 86.99, 41.5 82.7, 41.87 86.3 C42.25 89.9, 22.61 82.13, 21.11 95.78 C19.62 109.43, 35.83 154.44, 32.88 168.2 C29.94 181.96, 8.2 176.52, 3.44 178.35 M0.68 1.58 C5.39 3.13, 26.84 -1.08, 29.78 10.7 C32.73 22.49, 16.35 59.46, 18.35 72.28 C20.35 85.11, 41.48 83.67, 41.79 87.65 C42.1 91.63, 22.05 82.9, 20.23 96.14 C18.4 109.38, 33.52 153.62, 30.84 167.09 C28.16 180.57, 8.64 174.98, 4.14 177.01" stroke="#000000" stroke-width="1" fill="none"></path></g></g><g transform="translate(521.6666769981383 83.34670590149861) rotate(0 33.50000000000006 12.5)"><text x="0" y="18" font-family="Virgil, Segoe UI Emoji" font-size="20px" fill="#000000" text-anchor="start" style="white-space: pre;" direction="ltr">Header</text></g></svg>